<?xml version="1.0" encoding="UTF-8" standalone="no"?>
<svg xmlns="http://www.w3.org/2000/svg"
     xmlns:svg="http://www.w3.org/2000/svg"
     version="1.1"
     width="32px" height="32px"
     viewBox="0 0 987 987">
  <path id="path1"
        fill="#fff"
        d="M 465.00,963.00
           C 442.23,961.08 430.89,935.71 423.40,917.00
             403.79,868.03 392.52,815.93 383.92,764.00
             383.92,764.00 373.84,683.00 373.84,683.00
             373.84,683.00 369.17,640.00 369.17,640.00
             369.17,640.00 366.91,605.00 366.91,605.00
             366.91,605.00 365.00,576.00 365.00,576.00
             365.00,576.00 365.00,556.00 365.00,556.00
             365.00,556.00 364.00,541.00 364.00,541.00
             364.00,541.00 364.00,453.00 364.00,453.00
             364.00,453.00 364.96,441.00 364.96,441.00
             364.96,441.00 364.96,429.00 364.96,429.00
             364.96,429.00 366.00,414.00 366.00,414.00
             366.00,414.00 369.91,360.00 369.91,360.00
             369.91,360.00 372.17,327.00 372.17,327.00
             372.17,327.00 375.84,299.00 375.84,299.00
             379.06,268.92 384.12,232.43 390.58,203.00
             399.87,160.64 409.05,118.03 426.28,78.00
             431.54,65.78 440.41,47.47 452.00,40.48
             456.07,38.02 460.40,36.93 465.00,36.00
             465.00,36.00 465.00,963.00 465.00,963.00 Z
           M 561.00,41.44
           C 579.80,39.03 611.46,46.97 630.00,52.29
             683.15,67.55 731.99,91.41 777.00,123.58
             867.53,188.28 932.38,282.02 959.37,390.00
             964.99,412.47 972.96,453.41 973.00,476.00
             973.00,476.00 973.00,520.00 973.00,520.00
             973.00,520.00 970.17,549.00 970.17,549.00
             970.17,549.00 967.73,572.00 967.73,572.00
             962.77,605.64 950.73,647.65 937.58,679.00
             918.13,725.34 888.53,772.73 854.83,810.00
             854.83,810.00 829.58,835.58 829.58,835.58
             813.83,851.32 796.22,864.97 778.00,877.72
             736.23,906.96 698.34,926.22 650.00,942.33
             650.00,942.33 601.00,955.42 601.00,955.42
             591.10,957.61 581.19,959.98 571.00,960.00
             561.12,960.02 555.53,959.71 546.00,956.30
             519.07,946.69 505.04,922.84 505.00,895.00
             505.00,895.00 505.00,246.00 505.00,246.00
             505.00,246.00 505.00,142.00 505.00,142.00
             505.00,142.00 505.00,102.00 505.00,102.00
             505.02,87.23 512.73,69.60 523.17,59.17
             527.87,54.47 533.11,51.19 539.00,48.25
             547.05,44.22 552.26,43.05 561.00,41.44 Z
           M 322.00,67.00
           C 324.77,73.76 324.00,86.45 324.00,94.00
             324.00,94.00 324.00,144.00 324.00,144.00
             324.00,144.00 324.00,321.00 324.00,321.00
             324.00,321.00 324.00,707.00 324.00,707.00
             324.00,707.00 324.00,900.00 324.00,900.00
             324.00,900.00 323.00,915.00 323.00,915.00
             323.00,915.00 323.00,934.00 323.00,934.00
             302.63,925.16 293.30,903.08 284.70,884.00
             264.48,839.18 253.60,790.98 244.00,743.00
             235.17,698.83 229.99,653.86 226.91,609.00
             226.91,609.00 224.00,568.00 224.00,568.00
             224.00,568.00 223.00,551.00 223.00,551.00
             223.00,551.00 223.00,454.00 223.00,454.00
             223.00,454.00 223.91,444.00 223.91,444.00
             223.91,444.00 226.09,406.00 226.09,406.00
             226.09,406.00 228.00,379.00 228.00,379.00
             228.00,379.00 232.85,333.00 232.85,333.00
             236.90,299.06 242.20,265.39 249.58,232.00
             258.16,193.12 269.44,147.74 286.74,112.00
             296.81,91.21 301.29,79.47 322.00,67.00 Z
           M 181.00,150.00
           C 181.00,150.00 182.00,170.00 182.00,170.00
             182.00,170.00 182.00,212.00 182.00,212.00
             182.00,212.00 182.00,356.00 182.00,356.00
             182.00,356.00 182.00,851.00 182.00,851.00
             168.55,847.50 158.61,825.11 153.43,813.00
             136.26,772.88 127.11,734.52 118.60,692.00
             111.30,655.50 106.50,619.08 103.91,582.00
             103.91,582.00 102.00,558.00 102.00,558.00
             102.00,558.00 101.00,543.00 101.00,543.00
             101.00,543.00 100.00,523.00 100.00,523.00
             100.00,523.00 100.00,488.00 100.00,488.00
             100.00,488.00 100.98,475.00 100.98,475.00
             100.98,475.00 100.98,460.00 100.98,460.00
             100.98,460.00 102.00,447.00 102.00,447.00
             102.00,447.00 103.91,417.00 103.91,417.00
             106.93,373.82 114.07,331.41 122.60,289.00
             129.26,255.89 138.82,223.06 152.15,192.00
             159.63,174.58 164.52,161.14 181.00,150.00 Z
           M 60.96,319.00
           C 60.96,319.00 60.96,595.00 60.96,595.00
             60.96,595.00 60.96,661.00 60.96,661.00
             60.96,661.00 60.96,675.98 60.96,675.98
             60.45,678.50 59.09,681.04 56.08,679.83
             52.27,678.30 48.49,667.86 46.85,664.00
             40.18,648.34 35.25,631.51 31.13,615.00
             24.09,586.83 19.90,557.91 17.91,529.00
             17.91,529.00 17.00,517.00 17.00,517.00
             17.00,517.00 17.00,484.00 17.00,484.00
             17.00,484.00 17.91,472.00 17.91,472.00
             19.67,446.78 23.61,421.80 28.60,397.00
             32.32,378.52 39.55,354.47 46.60,337.00
             49.60,329.57 52.11,320.44 60.96,319.00 Z" />
</svg>
